<mxfile host="65bd71144e">
    <diagram id="qwagQEG-eHGDTuZrpyXW" name="Page-1">
        <mxGraphModel dx="939" dy="506" grid="1" gridSize="10" guides="1" tooltips="1" connect="1" arrows="1" fold="1" page="1" pageScale="1" pageWidth="827" pageHeight="1169" math="0" shadow="0">
            <root>
                <mxCell id="0"/>
                <mxCell id="1" parent="0"/>
                <mxCell id="2" value="ZOO" style="html=1;" vertex="1" parent="1">
                    <mxGeometry x="359" y="30" width="110" height="50" as="geometry"/>
                </mxCell>
                <mxCell id="3" value="CUIDADOR" style="html=1;" vertex="1" parent="1">
                    <mxGeometry x="359" y="170" width="110" height="50" as="geometry"/>
                </mxCell>
                <mxCell id="4" value="ANIMAL" style="html=1;" vertex="1" parent="1">
                    <mxGeometry x="600" y="80" width="110" height="50" as="geometry"/>
                </mxCell>
                <mxCell id="5" value="COMIDA" style="html=1;" vertex="1" parent="1">
                    <mxGeometry x="750" y="370" width="110" height="50" as="geometry"/>
                </mxCell>
                <mxCell id="6" value="VACACIONES" style="html=1;" vertex="1" parent="1">
                    <mxGeometry x="359" y="310" width="110" height="50" as="geometry"/>
                </mxCell>
                <mxCell id="8" value="STOCK" style="html=1;" vertex="1" parent="1">
                    <mxGeometry x="110" y="80" width="110" height="50" as="geometry"/>
                </mxCell>
                <mxCell id="15" value="DIETA" style="swimlane;fontStyle=0;childLayout=stackLayout;horizontal=1;startSize=26;fillColor=none;horizontalStack=0;resizeParent=1;resizeParentMax=0;resizeLast=0;collapsible=1;marginBottom=0;" vertex="1" parent="1">
                    <mxGeometry x="40" y="240" width="140" height="80" as="geometry"/>
                </mxCell>
                <mxCell id="16" value="CARNÍVORO&#10;HERBÍVORO&#10;INSECTIVORO" style="text;strokeColor=none;fillColor=none;align=left;verticalAlign=top;spacingLeft=4;spacingRight=4;overflow=hidden;rotatable=0;points=[[0,0.5],[1,0.5]];portConstraint=eastwest;" vertex="1" parent="15">
                    <mxGeometry y="26" width="140" height="54" as="geometry"/>
                </mxCell>
                <mxCell id="19" value="" style="endArrow=diamondThin;endFill=1;endSize=24;html=1;entryX=0;entryY=0.5;entryDx=0;entryDy=0;exitX=0.439;exitY=-0.047;exitDx=0;exitDy=0;exitPerimeter=0;" edge="1" parent="1" source="8" target="2">
                    <mxGeometry width="160" relative="1" as="geometry">
                        <mxPoint x="350" y="220" as="sourcePoint"/>
                        <mxPoint x="510" y="220" as="targetPoint"/>
                        <Array as="points">
                            <mxPoint x="158" y="55"/>
                        </Array>
                    </mxGeometry>
                </mxCell>
                <mxCell id="20" value="1" style="text;strokeColor=none;align=center;fillColor=none;html=1;verticalAlign=middle;whiteSpace=wrap;rounded=0;" vertex="1" parent="1">
                    <mxGeometry x="299" y="60" width="60" height="30" as="geometry"/>
                </mxCell>
                <mxCell id="21" value="1" style="text;strokeColor=none;align=center;fillColor=none;html=1;verticalAlign=middle;whiteSpace=wrap;rounded=0;" vertex="1" parent="1">
                    <mxGeometry x="110" y="50" width="60" height="30" as="geometry"/>
                </mxCell>
                <mxCell id="22" value="" style="endArrow=diamondThin;endFill=1;endSize=24;html=1;entryX=1;entryY=0.5;entryDx=0;entryDy=0;exitX=0.549;exitY=-0.03;exitDx=0;exitDy=0;exitPerimeter=0;" edge="1" parent="1" source="4" target="2">
                    <mxGeometry width="160" relative="1" as="geometry">
                        <mxPoint x="350" y="220" as="sourcePoint"/>
                        <mxPoint x="510" y="220" as="targetPoint"/>
                        <Array as="points">
                            <mxPoint x="660" y="55"/>
                        </Array>
                    </mxGeometry>
                </mxCell>
                <mxCell id="23" value="1" style="text;strokeColor=none;align=center;fillColor=none;html=1;verticalAlign=middle;whiteSpace=wrap;rounded=0;" vertex="1" parent="1">
                    <mxGeometry x="640" y="50" width="60" height="30" as="geometry"/>
                </mxCell>
                <mxCell id="24" value="0...n" style="text;strokeColor=none;align=center;fillColor=none;html=1;verticalAlign=middle;whiteSpace=wrap;rounded=0;" vertex="1" parent="1">
                    <mxGeometry x="480" y="60" width="60" height="30" as="geometry"/>
                </mxCell>
                <mxCell id="25" value="" style="endArrow=diamondThin;endFill=1;endSize=24;html=1;entryX=0.5;entryY=1;entryDx=0;entryDy=0;exitX=0.5;exitY=0;exitDx=0;exitDy=0;" edge="1" parent="1" source="3" target="2">
                    <mxGeometry width="160" relative="1" as="geometry">
                        <mxPoint x="350" y="220" as="sourcePoint"/>
                        <mxPoint x="510" y="220" as="targetPoint"/>
                    </mxGeometry>
                </mxCell>
                <mxCell id="26" value="0...n" style="text;strokeColor=none;align=center;fillColor=none;html=1;verticalAlign=middle;whiteSpace=wrap;rounded=0;" vertex="1" parent="1">
                    <mxGeometry x="414" y="90" width="60" height="30" as="geometry"/>
                </mxCell>
                <mxCell id="27" value="1" style="text;strokeColor=none;align=center;fillColor=none;html=1;verticalAlign=middle;whiteSpace=wrap;rounded=0;" vertex="1" parent="1">
                    <mxGeometry x="370" y="140" width="60" height="30" as="geometry"/>
                </mxCell>
                <mxCell id="28" value="" style="endArrow=diamondThin;endFill=0;endSize=24;html=1;exitX=0.5;exitY=1;exitDx=0;exitDy=0;" edge="1" parent="1" source="4">
                    <mxGeometry width="160" relative="1" as="geometry">
                        <mxPoint x="350" y="220" as="sourcePoint"/>
                        <mxPoint x="470" y="200" as="targetPoint"/>
                        <Array as="points">
                            <mxPoint x="655" y="200"/>
                        </Array>
                    </mxGeometry>
                </mxCell>
                <mxCell id="29" value="1...n" style="text;strokeColor=none;align=center;fillColor=none;html=1;verticalAlign=middle;whiteSpace=wrap;rounded=0;" vertex="1" parent="1">
                    <mxGeometry x="600" y="130" width="60" height="30" as="geometry"/>
                </mxCell>
                <mxCell id="30" value="0...n" style="text;strokeColor=none;align=center;fillColor=none;html=1;verticalAlign=middle;whiteSpace=wrap;rounded=0;" vertex="1" parent="1">
                    <mxGeometry x="469" y="200" width="60" height="30" as="geometry"/>
                </mxCell>
                <mxCell id="31" value="" style="endArrow=diamondThin;endFill=1;endSize=24;html=1;exitX=0.5;exitY=0;exitDx=0;exitDy=0;entryX=0.5;entryY=1;entryDx=0;entryDy=0;" edge="1" parent="1" source="6" target="3">
                    <mxGeometry width="160" relative="1" as="geometry">
                        <mxPoint x="350" y="220" as="sourcePoint"/>
                        <mxPoint x="410" y="220" as="targetPoint"/>
                    </mxGeometry>
                </mxCell>
                <mxCell id="32" value="0..n" style="edgeLabel;html=1;align=center;verticalAlign=middle;resizable=0;points=[];" vertex="1" connectable="0" parent="31">
                    <mxGeometry x="0.7462" y="3" relative="1" as="geometry">
                        <mxPoint x="-21" y="-1" as="offset"/>
                    </mxGeometry>
                </mxCell>
                <mxCell id="33" value="1" style="text;strokeColor=none;align=center;fillColor=none;html=1;verticalAlign=middle;whiteSpace=wrap;rounded=0;" vertex="1" parent="1">
                    <mxGeometry x="400" y="280" width="60" height="30" as="geometry"/>
                </mxCell>
            </root>
        </mxGraphModel>
    </diagram>
</mxfile>
